<svg width="1080" height="820" viewBox="0 0 1080 820" fill="none" xmlns="http://www.w3.org/2000/svg" role="img" aria-labelledby="title desc">
  <title id="title">Vista previa d'Entitapp</title>
  <desc id="desc">Composicio visual amb pantalles de reunions, activitats i tasques d'una entitat.</desc>
  <rect width="1080" height="820" rx="36" fill="#F7FBFF"/>
  <circle cx="155" cy="132" r="72" fill="#DFFEEE"/>
  <circle cx="938" cy="152" r="96" fill="#DDEBFF"/>
  <circle cx="881" cy="688" r="110" fill="#D9FAF4"/>
  <g filter="url(#shadow)">
    <rect x="138" y="86" width="324" height="648" rx="42" fill="#071427"/>
    <rect x="160" y="116" width="280" height="588" rx="30" fill="#FBFCF7"/>
    <rect x="188" y="154" width="126" height="13" rx="6.5" fill="#8AA2C3"/>
    <rect x="188" y="190" width="218" height="54" rx="18" fill="#EAF3FF"/>
    <rect x="210" y="211" width="132" height="12" rx="6" fill="#126BFF"/>
    <rect x="188" y="274" width="218" height="98" rx="22" fill="#DFFEEE"/>
    <rect x="212" y="300" width="118" height="14" rx="7" fill="#0AAE6C"/>
    <rect x="212" y="331" width="152" height="11" rx="5.5" fill="#56CC9D"/>
    <rect x="188" y="398" width="218" height="98" rx="22" fill="#E5FBF7"/>
    <rect x="212" y="424" width="154" height="14" rx="7" fill="#109F8F"/>
    <rect x="212" y="455" width="128" height="11" rx="5.5" fill="#6BCFC3"/>
    <rect x="188" y="522" width="92" height="92" rx="20" fill="#126BFF"/>
    <rect x="304" y="522" width="102" height="92" rx="20" fill="#DFFEEE"/>
    <rect x="188" y="642" width="218" height="30" rx="15" fill="#18D2B0"/>
  </g>
  <g filter="url(#shadow)">
    <rect x="516" y="156" width="420" height="516" rx="34" fill="#FFFFFF"/>
    <rect x="556" y="204" width="190" height="18" rx="9" fill="#071427"/>
    <rect x="556" y="248" width="332" height="78" rx="22" fill="#EAF3FF"/>
    <rect x="584" y="274" width="126" height="13" rx="6.5" fill="#126BFF"/>
    <rect x="584" y="300" width="238" height="10" rx="5" fill="#8EA8CC"/>
    <rect x="556" y="350" width="332" height="78" rx="22" fill="#DFFEEE"/>
    <rect x="584" y="376" width="142" height="13" rx="6.5" fill="#0AAE6C"/>
    <rect x="584" y="402" width="222" height="10" rx="5" fill="#75CEA6"/>
    <rect x="556" y="452" width="332" height="78" rx="22" fill="#E5FBF7"/>
    <rect x="584" y="478" width="156" height="13" rx="6.5" fill="#109F8F"/>
    <rect x="584" y="504" width="252" height="10" rx="5" fill="#72CDC3"/>
    <rect x="556" y="574" width="104" height="40" rx="14" fill="#126BFF"/>
    <rect x="684" y="574" width="104" height="40" rx="14" fill="#DFFEEE"/>
  </g>
  <defs>
    <filter id="shadow" x="98" y="58" width="878" height="724" filterUnits="userSpaceOnUse" color-interpolation-filters="sRGB">
      <feDropShadow dx="0" dy="18" stdDeviation="24" flood-color="#071427" flood-opacity="0.16"/>
    </filter>
  </defs>
</svg>
